<?xml version="1.0" encoding="UTF-8" standalone="no"?>
<!DOCTYPE svg PUBLIC "-//W3C//DTD SVG 1.1//EN"
 "http://www.w3.org/Graphics/SVG/1.1/DTD/svg11.dtd">
<!-- Generated by graphviz version 14.0.2 (20251019.1705)
 -->
<!-- Pages: 1 -->
<svg width="382pt" height="236pt"
 viewBox="0.00 0.00 382.00 236.00" xmlns="http://www.w3.org/2000/svg" xmlns:xlink="http://www.w3.org/1999/xlink">
<g id="graph0" class="graph" transform="scale(1 1) rotate(0) translate(4 232.35)">
<polygon fill="white" stroke="none" points="-4,4 -4,-232.35 378,-232.35 378,4 -4,4"/>
<text xml:space="preserve" text-anchor="middle" x="187" y="-201.55" font-family="serif" font-size="24.00">My BST</text>
<!-- D -->
<g id="node1" class="node">
<title>D</title>
<ellipse fill="none" stroke="black" cx="188" cy="-171.88" rx="27" ry="19.98"/>
<text xml:space="preserve" text-anchor="middle" x="188" y="-168.7" font-family="Comic Sans MS" font-size="14.00">D</text>
</g>
<!-- B -->
<g id="node2" class="node">
<title>B</title>
<ellipse fill="none" stroke="black" cx="121" cy="-95.93" rx="27" ry="19.98"/>
<text xml:space="preserve" text-anchor="middle" x="121" y="-92.75" font-family="Comic Sans MS" font-size="14.00">B</text>
</g>
<!-- D&#45;&gt;B -->
<g id="edge1" class="edge">
<title>D&#45;&gt;B</title>
<path fill="none" stroke="black" d="M173.46,-154.83C164.66,-145.11 153.24,-132.51 143.31,-121.55"/>
<polygon fill="black" stroke="black" points="146.07,-119.38 136.76,-114.32 140.88,-124.08 146.07,-119.38"/>
</g>
<!-- fake1 -->
<!-- D&#45;&gt;fake1 -->
<!-- F -->
<g id="node4" class="node">
<title>F</title>
<ellipse fill="none" stroke="black" cx="252" cy="-95.93" rx="27" ry="19.98"/>
<text xml:space="preserve" text-anchor="middle" x="252" y="-92.75" font-family="Comic Sans MS" font-size="14.00">F</text>
</g>
<!-- D&#45;&gt;F -->
<g id="edge3" class="edge">
<title>D&#45;&gt;F</title>
<path fill="none" stroke="black" d="M202.2,-154.47C210.49,-144.89 221.11,-132.62 230.41,-121.87"/>
<polygon fill="black" stroke="black" points="232.95,-124.29 236.85,-114.44 227.66,-119.71 232.95,-124.29"/>
</g>
<!-- A -->
<g id="node5" class="node">
<title>A</title>
<ellipse fill="none" stroke="black" cx="27" cy="-19.98" rx="27" ry="19.98"/>
<text xml:space="preserve" text-anchor="middle" x="27" y="-16.8" font-family="Comic Sans MS" font-size="14.00">A</text>
</g>
<!-- B&#45;&gt;A -->
<g id="edge4" class="edge">
<title>B&#45;&gt;A</title>
<path fill="none" stroke="black" d="M102.88,-80.67C88.96,-69.72 69.53,-54.44 53.82,-42.08"/>
<polygon fill="black" stroke="black" points="56.28,-39.56 46.26,-36.13 51.95,-45.06 56.28,-39.56"/>
</g>
<!-- fake2 -->
<!-- B&#45;&gt;fake2 -->
<!-- C -->
<g id="node7" class="node">
<title>C</title>
<ellipse fill="none" stroke="black" cx="151" cy="-19.98" rx="27" ry="19.98"/>
<text xml:space="preserve" text-anchor="middle" x="151" y="-16.8" font-family="Comic Sans MS" font-size="14.00">C</text>
</g>
<!-- B&#45;&gt;C -->
<g id="edge6" class="edge">
<title>B&#45;&gt;C</title>
<path fill="none" stroke="black" d="M128.57,-76.27C131.77,-68.38 135.57,-59.02 139.12,-50.25"/>
<polygon fill="black" stroke="black" points="142.35,-51.62 142.86,-41.03 135.86,-48.98 142.35,-51.62"/>
</g>
<!-- E -->
<g id="node8" class="node">
<title>E</title>
<ellipse fill="none" stroke="black" cx="223" cy="-19.98" rx="27" ry="19.98"/>
<text xml:space="preserve" text-anchor="middle" x="223" y="-16.8" font-family="Comic Sans MS" font-size="14.00">E</text>
</g>
<!-- F&#45;&gt;E -->
<g id="edge7" class="edge">
<title>F&#45;&gt;E</title>
<path fill="none" stroke="black" d="M244.68,-76.27C241.59,-68.38 237.92,-59.02 234.48,-50.25"/>
<polygon fill="black" stroke="black" points="237.78,-49.07 230.87,-41.04 231.26,-51.63 237.78,-49.07"/>
</g>
<!-- fake3 -->
<!-- F&#45;&gt;fake3 -->
<!-- G -->
<g id="node10" class="node">
<title>G</title>
<ellipse fill="none" stroke="black" cx="347" cy="-19.98" rx="27" ry="19.98"/>
<text xml:space="preserve" text-anchor="middle" x="347" y="-16.8" font-family="Comic Sans MS" font-size="14.00">G</text>
</g>
<!-- F&#45;&gt;G -->
<g id="edge9" class="edge">
<title>F&#45;&gt;G</title>
<path fill="none" stroke="black" d="M270.32,-80.67C284.38,-69.72 304.01,-54.44 319.89,-42.08"/>
<polygon fill="black" stroke="black" points="321.8,-45.02 327.54,-36.12 317.5,-39.5 321.8,-45.02"/>
</g>
</g>
</svg>
