<?xml version="1.0" encoding="UTF-8" standalone="no"?>
<!DOCTYPE svg PUBLIC "-//W3C//DTD SVG 1.1//EN"
 "http://www.w3.org/Graphics/SVG/1.1/DTD/svg11.dtd">
<!-- Generated by graphviz version 14.0.2 (20251019.1705)
 -->
<!-- Pages: 1 -->
<svg width="138pt" height="154pt"
 viewBox="0.00 0.00 138.00 154.00" xmlns="http://www.w3.org/2000/svg" xmlns:xlink="http://www.w3.org/1999/xlink">
<g id="graph0" class="graph" transform="scale(1 1) rotate(0) translate(4 149.5)">
<polygon fill="white" stroke="none" points="-4,4 -4,-149.5 133.62,-149.5 133.62,4 -4,4"/>
<text xml:space="preserve" text-anchor="middle" x="64.81" y="-118.7" font-family="serif" font-size="24.00">My Queue</text>
<!-- front_label -->
<g id="node1" class="node">
<title>front_label</title>
<text xml:space="preserve" text-anchor="middle" x="28.62" y="-14.43" font-family="Comic Sans MS" font-size="16.00">Front</text>
</g>
<!-- queue -->
<g id="node3" class="node">
<title>queue</title>
<polygon fill="none" stroke="black" points="28.62,-72.5 28.62,-108.5 100.62,-108.5 100.62,-72.5 28.62,-72.5"/>
<text xml:space="preserve" text-anchor="middle" x="41.5" y="-86.92" font-family="Comic Sans MS" font-size="16.00">B</text>
<polyline fill="none" stroke="black" points="54.38,-72.5 54.38,-108.5"/>
<text xml:space="preserve" text-anchor="middle" x="67.25" y="-86.92" font-family="Comic Sans MS" font-size="16.00">C</text>
<polyline fill="none" stroke="black" points="80.12,-72.5 80.12,-108.5"/>
<text xml:space="preserve" text-anchor="middle" x="90.38" y="-86.92" font-family="Comic Sans MS" font-size="16.00"> </text>
</g>
<!-- front_label&#45;&gt;queue -->
<g id="edge1" class="edge">
<title>front_label&#45;&gt;queue:front</title>
<path fill="none" stroke="black" d="M34.91,-35.93C37.18,-43.08 39.48,-51.78 40.67,-60.55"/>
<polygon fill="black" stroke="black" points="37.18,-60.77 41.39,-70.49 44.16,-60.26 37.18,-60.77"/>
</g>
<!-- rear_label -->
<g id="node2" class="node">
<title>rear_label</title>
<text xml:space="preserve" text-anchor="middle" x="102.62" y="-14.43" font-family="Comic Sans MS" font-size="16.00">Rear</text>
</g>
<!-- rear_label&#45;&gt;queue -->
<g id="edge2" class="edge">
<title>rear_label&#45;&gt;queue:rear</title>
<path fill="none" stroke="black" d="M96.64,-35.96C94.48,-43.11 92.3,-51.81 91.16,-60.57"/>
<polygon fill="black" stroke="black" points="87.68,-60.27 90.48,-70.49 94.66,-60.75 87.68,-60.27"/>
</g>
</g>
</svg>
